# xmcd
# Track frame offsets:
# 150
# 14624
# 30067
# 44172
# 56839
# 71772
# 84646
# 100414
# 113689
# 124851
# 135148
#
# Disc length: 1909 seconds
# Revision: 0
# Processed by: cddbd v1.4PL0 Copyright (c) Steve Scherf et al.
# Submitted via: VisiTrax 2.9.5.180 - For more info visit www.synapsa.com
#
DISCID=9207730b
DTITLE=Skelly Boyd and Ginger Evens - Shadows And Strings
DYEAR=2003
DGENRE=Cowboy
TTITLE0=Early Ride
TTITLE1=La Flora
TTITLE2=Amigo
TTITLE3=Miran Sol
TTITLE4=La Companera
TTITLE5=Sunset
TTITLE6=Rio Azul
TTITLE7=Jonas
TTITLE8=Remolina
TTITLE9=Birds
TTITLE10=Weary Ride
EXTD=
EXTT0=
EXTT1=
EXTT2=
EXTT3=
EXTT4=
EXTT5=
EXTT6=
EXTT7=
EXTT8=
EXTT9=
EXTT10=
PLAYORDER=
